<?xml version="1.0" encoding="utf-8"?>
<svg version="1.1" id="Layer_1" xmlns="http://www.w3.org/2000/svg" xmlns:xlink="http://www.w3.org/1999/xlink" x="0px" y="0px"
	 viewBox="0 0 500 500" style="enable-background:new 0 0 500 500;" xml:space="preserve">
<style>
  path {
    fill: #00000;
  }
  @media (prefers-color-scheme: dark) {
    path { fill: #ffffff; }
  }
</style>
<g>
	<path d="M75.46,275.37c11.15,29.12,3.44,9.2,14.57,38.32c2.44,6.39,4.56,12.91,5.23,19.75c0.37,3.76,0.2,7.57,0.26,11.36
		c0.03,1.67,0,3.33,0,4.99c0.38,0.09,0.53,0.15,0.68,0.15c10.76-0.06,21.52-0.07,32.27-0.2c4.19-0.05,8.08-1.31,11.67-3.53
		c27.8-17.13,55.61-34.23,83.41-51.34c1.95-1.2,3.93-2.3,6.28-2.52c2.72-0.26,5.09,0.7,7.39,2.01
		c11.31,6.45,22.64,12.89,33.96,19.33c15.76,8.98,31.51,17.98,47.29,26.92c2.43,1.38,3.72,3.44,3.8,6.1
		c0.17,5.19,0.15,10.39,0.2,15.59c0.01,0.55,0,1.1,0,1.75c1.99-0.15,3.85-0.36,5.72-0.41c7.83-0.21,15.67-0.47,23.5-0.51
		c12.88-0.07,25.76,0.03,38.64,0.05c0.88,0,1.77,0.01,2.64-0.1c2.71-0.33,4.47-1.94,5.62-4.33c1.87-3.89,3.74-7.77,5.62-11.65
		c11.84-24.39,20.43-42.34,32.26-66.75c1.94-4,8.19,1.62,8,2c-5,10-3.1,6.49-8.11,16.93c-10.23,21.31-20.59,42.56-30.89,63.84
		c-2.91,6.02-7.72,8.93-14.37,8.92c-21.84-0.02-43.67,0-65.51-0.06c-2.02-0.01-4.08-0.24-6.05-0.69c-3.14-0.72-4.76-2.74-4.94-5.96
		c-0.1-1.79-0.08-3.61,0.11-5.39c0.82-7.7-1.71-13.79-8.57-17.7c-3.74-2.14-7.66-3.97-11.41-6.09
		c-17.18-9.7-34.34-19.45-51.49-29.21c-1.44-0.82-2.81-1.79-4.11-2.82c-3.5-2.78-7.34-3.5-11.46-1.78c-2.24,0.93-4.4,2.1-6.46,3.38
		c-25.77,16.07-51.53,32.15-77.26,48.29c-3.88,2.43-8.09,3.73-12.58,3.79c-11.63,0.18-23.27,0.16-34.91,0.21
		c-0.96,0-1.92-0.08-2.86-0.25c-4.56-0.83-6.56-3.64-6.18-8.28c0.28-3.38,0.52-6.78,0.42-10.17c-0.23-7.58-2.13-14.86-4.78-21.91
		c-6.38-16.96-8.11-22.11-14.58-39.04"/>
	<path d="M52.8,211.73c18.49-9.37,36.97-18.75,55.5-28.03c4.26-2.13,8.75-3.9,12.14-7.34c2.86-2.89,5.65-5.91,8.05-9.18
		c17.82-24.41,35.54-48.9,53.29-73.35c2.37-3.27,4.71-6.56,7.24-9.7c1.08-1.34,2.55-2.41,3.96-3.43c1.52-1.1,3.28-1.56,5.19-1.57
		c22.24-0.03,44.48-0.1,66.71-0.15c5.12-0.01,10.24,0.09,15.36-0.01c2.81-0.06,5.47,0.53,8.26,1.36c-0.25,0.36-0.47,0.68-0.7,0.99
		c-6.94,9.14-13.87,18.28-20.82,27.41c-2.58,3.39-2.42,4.19,1.28,6.18c17.06,9.18,34.12,18.36,51.2,27.52
		c0.79,0.42,1.66,0.69,2.72,1.13c0-0.8,0-1.3,0-1.8c0-22.08,0-44.16,0-66.24c0-0.52,0.03-1.04,0.04-1.56c3.68,0,7.36,0,11.04,0
		c6.33,8.19,12.61,16.43,19.01,24.56c24.99,31.73,50.01,63.43,75.04,95.12c5.45,6.9,10.97,13.76,16.45,20.64
		c0.15,0.19,3.68,6.09,3.68,6.09c-0.39,0.04,0.29,0,0,0c-3,1-4.2,1.96-7,2c-0.72,0.01-6.65-7.51-7.08-8.07
		c-28.77-36.74-57.55-73.47-86.34-110.19c-4.52-5.76-9.12-11.45-13.69-17.16c-0.19-0.24-0.4-0.45-0.8-0.89c0,23.62,0,46.98,0,70.58
		c-1.3-0.51-2.45-0.85-3.49-1.4c-22.8-12.08-45.59-24.18-68.37-36.31c-1.3-0.69-2.57-1.48-3.71-2.41c-1.89-1.53-2.3-3.26-1.24-5.45
		c0.73-1.5,1.65-2.92,2.65-4.26c4.44-5.97,8.94-11.89,13.41-17.83c0.31-0.41,0.61-0.83,1.09-1.47c-1.05-0.19-1.93-0.49-2.8-0.49
		c-23.28,0.01-46.56,0.07-69.83,0.07c-2.66,0-4.43,1.32-5.88,3.32c-7.78,10.76-15.55,21.52-23.33,32.27
		c-13.12,18.14-26.25,36.27-39.37,54.41c-2.63,3.63-5.89,6.48-9.9,8.52c-18.91,9.59-37.82,19.21-56.73,28.79
		c-0.72,0.36-1.56,0.65-2.35,0.69"/>
	<path d="M378.16,426.04c-3.53-1.29-6.11-3.7-8.05-6.86c-5.12-8.38-10.25-16.75-15.33-25.15c-0.53-0.87-0.93-1.87-1.16-2.86
		c-0.67-2.89,1.01-5.47,3.95-5.9c1.73-0.26,3.5-0.23,5.26-0.23c13.91-0.01,27.82,0,41.74,0.02c3.14,0,5.29,1.41,5.59,3.96
		c0.15,1.23-0.05,2.72-0.64,3.79c-5.28,9.58-10.63,19.13-16.09,28.6c-0.66,1.15-2.08,1.9-3.24,2.71c-1.06,0.73-2.24,1.29-3.37,1.92
		C383.92,426.04,381.04,426.04,378.16,426.04z M363.23,393.26c0.14,0.31,0.18,0.47,0.26,0.59c4.48,6.78,9.01,13.53,13.41,20.36
		c1.36,2.11,3.08,2.98,5.49,2.73c0.28-0.03,0.56-0.02,0.84-0.02c1.88,0.01,3.34-0.59,4.3-2.39c3.68-6.91,7.44-13.79,11.17-20.68
		c0.08-0.15,0.06-0.36,0.09-0.6C386.94,393.26,375.17,393.26,363.23,393.26z"/>
</g>
<g>
	<g>
		<path d="M31.77,271.86l17.34-56.8h6.8l17.34,56.8h-9.41l-11.33-41.72l-11.33,41.72H31.77z M41.23,261.15v-8.44h23.01v8.44H41.23z"
			/>
		<path d="M88.18,231.31v27.27c0,1.8,0.47,3.18,1.43,4.16c0.95,0.98,2.32,1.46,4.12,1.46c1.77,0,3.12-0.48,4.06-1.45
			c0.94-0.96,1.41-2.33,1.41-4.1l0.55,6.56c-0.7,2.14-1.81,3.87-3.32,5.21c-1.51,1.34-3.45,2.01-5.82,2.01
			c-3.65,0-6.45-1.18-8.4-3.54c-1.95-2.36-2.93-5.75-2.93-10.18v-27.42H88.18z M99.19,271.86v-40.55h8.87v40.55H99.19z"/>
		<path d="M129.9,272.44c-4.12,0-7.48-0.84-10.1-2.52s-4.36-4.09-5.21-7.25l7.54-3.67c0.81,1.75,1.89,3.07,3.24,3.96
			c1.35,0.9,2.96,1.35,4.8,1.35c2,0,3.55-0.39,4.63-1.17c1.08-0.78,1.62-1.86,1.62-3.24c0-1.28-0.41-2.21-1.23-2.81
			c-0.82-0.6-1.89-1.05-3.22-1.37s-2.76-0.61-4.3-0.9c-1.38-0.34-2.76-0.73-4.14-1.17c-1.38-0.44-2.64-1.07-3.77-1.88
			c-1.13-0.81-2.06-1.9-2.77-3.28c-0.72-1.38-1.07-3.18-1.07-5.39c0-3.93,1.23-6.99,3.69-9.16c2.46-2.17,5.89-3.26,10.29-3.26
			c3.78,0,6.86,0.76,9.26,2.29c2.4,1.52,4.05,3.77,4.96,6.74l-7.54,3.59c-0.68-1.48-1.58-2.62-2.71-3.4s-2.47-1.17-4-1.17
			c-1.8,0-3.18,0.37-4.14,1.11c-0.96,0.74-1.45,1.78-1.45,3.11c0,1.09,0.37,1.93,1.11,2.5c0.74,0.57,1.71,1.01,2.91,1.31
			c1.2,0.3,2.49,0.58,3.87,0.84c1.43,0.26,2.9,0.59,4.39,0.98c1.5,0.39,2.87,0.99,4.12,1.8c1.25,0.81,2.24,1.97,2.97,3.48
			c0.73,1.51,1.09,3.49,1.09,5.94c0,4.01-1.3,7.12-3.89,9.34C138.26,271.33,134.61,272.44,129.9,272.44z"/>
		<path d="M163.73,272.44c-4.12,0-7.48-0.84-10.1-2.52s-4.36-4.09-5.21-7.25l7.54-3.67c0.81,1.75,1.89,3.07,3.24,3.96
			c1.35,0.9,2.96,1.35,4.8,1.35c2,0,3.55-0.39,4.63-1.17c1.08-0.78,1.62-1.86,1.62-3.24c0-1.28-0.41-2.21-1.23-2.81
			c-0.82-0.6-1.89-1.05-3.22-1.37s-2.76-0.61-4.3-0.9c-1.38-0.34-2.76-0.73-4.14-1.17c-1.38-0.44-2.64-1.07-3.77-1.88
			c-1.13-0.81-2.06-1.9-2.77-3.28c-0.72-1.38-1.07-3.18-1.07-5.39c0-3.93,1.23-6.99,3.69-9.16c2.46-2.17,5.89-3.26,10.29-3.26
			c3.78,0,6.86,0.76,9.26,2.29c2.4,1.52,4.05,3.77,4.96,6.74l-7.54,3.59c-0.68-1.48-1.58-2.62-2.71-3.4s-2.47-1.17-4-1.17
			c-1.8,0-3.18,0.37-4.14,1.11c-0.96,0.74-1.45,1.78-1.45,3.11c0,1.09,0.37,1.93,1.11,2.5c0.74,0.57,1.71,1.01,2.91,1.31
			c1.2,0.3,2.49,0.58,3.87,0.84c1.43,0.26,2.9,0.59,4.39,0.98c1.5,0.39,2.87,0.99,4.12,1.8c1.25,0.81,2.24,1.97,2.97,3.48
			c0.73,1.51,1.09,3.49,1.09,5.94c0,4.01-1.3,7.12-3.89,9.34C172.09,271.33,168.44,272.44,163.73,272.44z"/>
		<path d="M185.13,224.08v-8.87H194v8.87H185.13z M185.13,271.86v-40.55H194v40.55H185.13z"/>
		<path d="M217.83,272.44c-4.87,0-8.65-1.35-11.35-4.06c-2.7-2.71-4.04-6.55-4.04-11.52v-9.88c0-5.18,1.29-9.19,3.89-12.03
			c2.59-2.84,6.26-4.26,11-4.26c4.56,0,8.1,1.52,10.62,4.57c2.53,3.05,3.79,7.36,3.79,12.93v6.88h-22.81v-6.76h14.34l0.04-2.5
			c0.03-2.21-0.52-3.95-1.64-5.2c-1.12-1.25-2.57-1.88-4.34-1.88c-2.06,0-3.65,0.68-4.79,2.03c-1.13,1.35-1.7,3.28-1.7,5.78v10.55
			c0,2.29,0.6,4.07,1.8,5.33c1.2,1.26,2.88,1.89,5.04,1.89c1.48,0,2.73-0.36,3.73-1.09c1-0.73,1.7-1.76,2.09-3.09l7.77,2.77
			c-0.78,3.12-2.31,5.5-4.59,7.11C224.4,271.63,221.45,272.44,217.83,272.44z"/>
		<path d="M240.52,271.86v-40.55h8.98v40.55H240.52z M260.87,271.86v-26.48c0-2.08-0.5-3.66-1.48-4.73c-0.99-1.07-2.42-1.6-4.3-1.6
			c-1.82,0-3.21,0.53-4.16,1.58c-0.95,1.05-1.43,2.56-1.43,4.51l-0.82-6.8c1.02-2.53,2.38-4.44,4.1-5.74
			c1.72-1.3,3.71-1.95,5.98-1.95c3.54,0,6.27,1.18,8.18,3.54c1.91,2.36,2.87,5.71,2.87,10.06v27.62H260.87z"/>
		<path d="M293.06,272.44c-4.58,0-8.14-1.26-10.68-3.79c-2.54-2.53-3.81-6.09-3.81-10.7v-12.97c0-4.58,1.27-8.12,3.81-10.61
			c2.54-2.49,6.1-3.73,10.68-3.73c4.61,0,8.18,1.24,10.7,3.73c2.53,2.49,3.79,6.02,3.79,10.61v13.09c0,4.58-1.26,8.12-3.79,10.62
			C301.24,271.19,297.67,272.44,293.06,272.44z M293.1,264c1.77,0,3.14-0.55,4.1-1.66c0.96-1.11,1.45-2.64,1.45-4.59v-12.5
			c0-1.95-0.48-3.46-1.45-4.53c-0.96-1.07-2.33-1.6-4.1-1.6c-1.77,0-3.15,0.53-4.14,1.6c-0.99,1.07-1.48,2.58-1.48,4.53v12.5
			c0,1.95,0.49,3.48,1.48,4.59C289.95,263.45,291.33,264,293.1,264z"/>
		<path d="M316.5,271.86v-40.55h8.98v40.55H316.5z M336.81,271.86v-26.21c0-2.13-0.48-3.77-1.45-4.9c-0.96-1.13-2.38-1.7-4.26-1.7
			c-1.82,0-3.22,0.53-4.18,1.58c-0.96,1.05-1.45,2.56-1.45,4.51l-0.82-6.88c1.04-2.5,2.43-4.39,4.18-5.68
			c1.74-1.29,3.75-1.93,6.02-1.93c3.49,0,6.18,1.18,8.07,3.54c1.89,2.36,2.83,5.72,2.83,10.1v27.58H336.81z M357.12,271.86v-26.21
			c0-2.13-0.5-3.77-1.48-4.9c-0.99-1.13-2.44-1.7-4.34-1.7c-1.8,0-3.17,0.56-4.12,1.68c-0.95,1.12-1.43,2.72-1.43,4.8l-1.33-6.95
			c1.09-2.6,2.56-4.58,4.41-5.92c1.85-1.34,3.88-2.01,6.09-2.01c3.57,0,6.32,1.21,8.26,3.61c1.94,2.41,2.91,5.83,2.91,10.25v27.34
			H357.12z"/>
		<path d="M375.52,224.08v-8.87h8.87v8.87H375.52z M375.52,271.86v-40.55h8.87v40.55H375.52z"/>
		<path d="M408.06,272.44c-4.87,0-8.63-1.29-11.27-3.89c-2.64-2.59-3.96-6.26-3.96-11v-11.8c0-4.79,1.31-8.5,3.95-11.13
			c2.63-2.63,6.39-3.95,11.29-3.95c4.01,0,7.17,0.9,9.49,2.7c2.32,1.8,3.76,4.53,4.34,8.2l-8.2,2.73c-0.37-1.8-1.02-3.12-1.97-3.98
			c-0.95-0.86-2.17-1.29-3.65-1.29c-1.98,0-3.52,0.61-4.63,1.84c-1.11,1.22-1.66,2.92-1.66,5.08v11.41c0,2.14,0.55,3.79,1.66,4.96
			c1.11,1.17,2.65,1.76,4.63,1.76c1.48,0,2.7-0.42,3.65-1.27c0.95-0.85,1.59-2.12,1.93-3.81l8.2,2.81c-0.55,3.59-1.98,6.26-4.3,8.01
			C415.24,271.57,412.07,272.44,408.06,272.44z"/>
		<path d="M440.91,272.44c-4.12,0-7.48-0.84-10.1-2.52s-4.36-4.09-5.21-7.25l7.54-3.67c0.81,1.75,1.89,3.07,3.24,3.96
			c1.35,0.9,2.96,1.35,4.8,1.35c2,0,3.55-0.39,4.63-1.17c1.08-0.78,1.62-1.86,1.62-3.24c0-1.28-0.41-2.21-1.23-2.81
			c-0.82-0.6-1.89-1.05-3.22-1.37s-2.76-0.61-4.3-0.9c-1.38-0.34-2.76-0.73-4.14-1.17c-1.38-0.44-2.64-1.07-3.77-1.88
			c-1.13-0.81-2.06-1.9-2.77-3.28c-0.72-1.38-1.07-3.18-1.07-5.39c0-3.93,1.23-6.99,3.69-9.16c2.46-2.17,5.89-3.26,10.29-3.26
			c3.78,0,6.86,0.76,9.26,2.29c2.4,1.52,4.05,3.77,4.96,6.74l-7.54,3.59c-0.68-1.48-1.58-2.62-2.71-3.4s-2.47-1.17-4-1.17
			c-1.8,0-3.18,0.37-4.14,1.11c-0.96,0.74-1.45,1.78-1.45,3.11c0,1.09,0.37,1.93,1.11,2.5c0.74,0.57,1.71,1.01,2.91,1.31
			c1.2,0.3,2.49,0.58,3.87,0.84c1.43,0.26,2.9,0.59,4.39,0.98c1.5,0.39,2.87,0.99,4.12,1.8c1.25,0.81,2.24,1.97,2.97,3.48
			c0.73,1.51,1.09,3.49,1.09,5.94c0,4.01-1.3,7.12-3.89,9.34C449.28,271.33,445.63,272.44,440.91,272.44z"/>
	</g>
</g>
</svg>
